<svg width="36" height="36" viewBox="0 0 36 36" fill="none" xmlns="http://www.w3.org/2000/svg">
<path d="M11.3621 17.4V28C11.3621 28.5523 11.8098 29 12.3621 29H15.9138C16.4661 29 16.9138 28.5523 16.9138 28V23.6C16.9138 23.0477 17.3615 22.6 17.9138 22.6H19.4828C20.035 22.6 20.4828 23.0477 20.4828 23.6V28C20.4828 28.5523 20.9305 29 21.4828 29H25.0345C25.5868 29 26.0345 28.5523 26.0345 28V17.4M7 17L12.75 12L17.8438 7.57059C18.2201 7.2434 18.7799 7.2434 19.1562 7.57059L30 17" stroke="white" stroke-width="2" stroke-linecap="round" stroke-linejoin="round"/>
</svg>
