<svg width="21" height="21" viewBox="0 0 21 21" fill="none" xmlns="http://www.w3.org/2000/svg">
<mask id="path-1-inside-1_984_1220" fill="white">
<path fill-rule="evenodd" clip-rule="evenodd" d="M7.92957 1C5.98491 1 4.40845 2.57646 4.40845 4.52112V12.6204C3.53719 13.5096 3 14.7273 3 16.0704C3 18.793 5.20705 21 7.92957 21C10.6521 21 12.8591 18.793 12.8591 16.0704C12.8591 14.7273 12.322 13.5096 11.4507 12.6204V4.52112C11.4507 2.57646 9.87424 1 7.92957 1Z"/>
</mask>
<path d="M4.40845 12.6204L4.97984 13.1804L5.20845 12.9471V12.6204H4.40845ZM11.4507 12.6204H10.6507V12.9471L10.8793 13.1804L11.4507 12.6204ZM5.20845 4.52112C5.20845 3.01829 6.42674 1.8 7.92957 1.8V0.2C5.54308 0.2 3.60845 2.13463 3.60845 4.52112H5.20845ZM5.20845 12.6204V4.52112H3.60845V12.6204H5.20845ZM3.8 16.0704C3.8 14.945 4.24918 13.926 4.97984 13.1804L3.83706 12.0605C2.82521 13.0931 2.2 14.5096 2.2 16.0704H3.8ZM7.92957 20.2C5.64887 20.2 3.8 18.3511 3.8 16.0704H2.2C2.2 19.2348 4.76522 21.8 7.92957 21.8V20.2ZM12.0591 16.0704C12.0591 18.3511 10.2103 20.2 7.92957 20.2V21.8C11.0939 21.8 13.6591 19.2348 13.6591 16.0704H12.0591ZM10.8793 13.1804C11.61 13.926 12.0591 14.945 12.0591 16.0704H13.6591C13.6591 14.5096 13.0339 13.0931 12.0221 12.0605L10.8793 13.1804ZM10.6507 4.52112V12.6204H12.2507V4.52112H10.6507ZM7.92957 1.8C9.43241 1.8 10.6507 3.01829 10.6507 4.52112H12.2507C12.2507 2.13463 10.3161 0.2 7.92957 0.2V1.8Z" fill="black" mask="url(#path-1-inside-1_984_1220)"/>
<mask id="path-3-inside-2_984_1220" fill="white">
<path fill-rule="evenodd" clip-rule="evenodd" d="M8.6338 6.63381H7.22535V13.3423C6.0104 13.655 5.11267 14.7579 5.11267 16.0704C5.11267 17.6262 6.37384 18.8873 7.92957 18.8873C9.4853 18.8873 10.7465 17.6262 10.7465 16.0704C10.7465 14.7579 9.84874 13.655 8.6338 13.3423V6.63381Z"/>
</mask>
<path fill-rule="evenodd" clip-rule="evenodd" d="M8.6338 6.63381H7.22535V13.3423C6.0104 13.655 5.11267 14.7579 5.11267 16.0704C5.11267 17.6262 6.37384 18.8873 7.92957 18.8873C9.4853 18.8873 10.7465 17.6262 10.7465 16.0704C10.7465 14.7579 9.84874 13.655 8.6338 13.3423V6.63381Z" fill="black"/>
<path d="M7.22535 6.63381V5.63381H6.22535V6.63381H7.22535ZM8.6338 6.63381H9.6338V5.63381H8.6338V6.63381ZM7.22535 13.3423L7.4746 14.3107L8.22535 14.1175V13.3423H7.22535ZM8.6338 13.3423H7.6338V14.1175L8.38454 14.3107L8.6338 13.3423ZM7.22535 7.63381H8.6338V5.63381H7.22535V7.63381ZM8.22535 13.3423V6.63381H6.22535V13.3423H8.22535ZM6.11267 16.0704C6.11267 15.2252 6.69075 14.5125 7.4746 14.3107L6.97609 12.3739C5.33005 12.7975 4.11267 14.2905 4.11267 16.0704H6.11267ZM7.92957 17.8873C6.92612 17.8873 6.11267 17.0739 6.11267 16.0704H4.11267C4.11267 18.1785 5.82155 19.8873 7.92957 19.8873V17.8873ZM9.74647 16.0704C9.74647 17.0739 8.93301 17.8873 7.92957 17.8873V19.8873C10.0376 19.8873 11.7465 18.1785 11.7465 16.0704H9.74647ZM8.38454 14.3107C9.16839 14.5125 9.74647 15.2252 9.74647 16.0704H11.7465C11.7465 14.2905 10.5291 12.7975 8.88305 12.3739L8.38454 14.3107ZM7.6338 6.63381V13.3423H9.6338V6.63381H7.6338Z" fill="black" mask="url(#path-3-inside-2_984_1220)"/>
<rect x="13.2112" y="2.76056" width="2.8169" height="0.704225" rx="0.352112" fill="black" stroke="black" stroke-width="0.704225"/>
<rect x="13.2112" y="5.15496" width="2.8169" height="0.704225" rx="0.352112" fill="black" stroke="black" stroke-width="0.704225"/>
<rect x="13.2112" y="7.54932" width="2.8169" height="0.704225" rx="0.352112" fill="black" stroke="black" stroke-width="0.704225"/>
<rect x="13.2112" y="9.94372" width="2.8169" height="0.704225" rx="0.352112" fill="black" stroke="black" stroke-width="0.704225"/>
</svg>
