<svg width="36" height="36" viewBox="0 0 36 36" fill="none" xmlns="http://www.w3.org/2000/svg">
<path d="M18.4999 21.857C20.5208 21.857 22.1591 20.2187 22.1591 18.1977C22.1591 16.1768 20.5208 14.5385 18.4999 14.5385C16.4789 14.5385 14.8406 16.1768 14.8406 18.1977C14.8406 20.2187 16.4789 21.857 18.4999 21.857Z" stroke="white" stroke-width="2"/>
<path d="M20.6533 6.18569C20.205 6 19.6367 6 18.5 6C17.3633 6 16.7951 6 16.3467 6.18569C15.749 6.43329 15.2741 6.9082 15.0265 7.50593C14.9134 7.7788 14.8692 8.09613 14.8519 8.55901C14.8265 9.23925 14.4776 9.86889 13.8881 10.2092C13.2986 10.5496 12.5789 10.5369 11.9771 10.2188C11.5675 10.0023 11.2706 9.88198 10.9778 9.84344C10.3363 9.75898 9.68758 9.93281 9.17429 10.3267C8.78932 10.6221 8.50515 11.1143 7.93682 12.0986C7.3685 13.083 7.08433 13.5752 7.02099 14.0563C6.93655 14.6977 7.11037 15.3465 7.50424 15.8598C7.68401 16.0941 7.93667 16.291 8.3288 16.5374C8.90526 16.8996 9.27618 17.5167 9.27614 18.1974C9.2761 18.8782 8.9052 19.4951 8.32879 19.8573C7.9366 20.1038 7.68391 20.3008 7.50412 20.5351C7.11025 21.0483 6.93643 21.697 7.02088 22.3385C7.08421 22.8195 7.36837 23.3118 7.9367 24.2962C8.50504 25.2805 8.78921 25.7728 9.17417 26.0681C9.68746 26.4619 10.3362 26.6357 10.9777 26.5513C11.2705 26.5128 11.5674 26.3924 11.9769 26.176C12.5787 25.8579 13.2985 25.8452 13.888 26.1855C14.4776 26.526 14.8265 27.1556 14.8519 27.836C14.8692 28.2987 14.9134 28.6161 15.0265 28.889C15.2741 29.4866 15.749 29.9616 16.3467 30.2092C16.7951 30.3949 17.3633 30.3949 18.5 30.3949C19.6367 30.3949 20.205 30.3949 20.6533 30.2092C21.251 29.9616 21.726 29.4866 21.9735 28.889C22.0865 28.6161 22.1308 28.2987 22.1481 27.8358C22.1735 27.1556 22.5224 26.526 23.1119 26.1855C23.7014 25.8451 24.4211 25.8579 25.0231 26.176C25.4325 26.3924 25.7294 26.5127 26.0222 26.5512C26.6636 26.6357 27.3124 26.4619 27.8257 26.0681C28.2106 25.7727 28.4948 25.2805 29.0631 24.296C29.6315 23.3117 29.9157 22.8195 29.979 22.3385C30.0634 21.697 29.8896 21.0482 29.4958 20.535C29.316 20.3006 29.0632 20.1036 28.6711 19.8573C28.0948 19.4951 27.7238 18.8781 27.7238 18.1973C27.7238 17.5166 28.0948 16.8998 28.6711 16.5376C29.0634 16.2911 29.3161 16.0942 29.4959 15.8598C29.8897 15.3466 30.0635 14.6978 29.9791 14.0564C29.9158 13.5753 29.6316 13.0831 29.0632 12.0987C28.495 11.1143 28.2108 10.6222 27.8258 10.3268C27.3125 9.93289 26.6638 9.75907 26.0223 9.84352C25.7296 9.88207 25.4327 10.0024 25.0231 10.2188C24.4213 10.5369 23.7015 10.5497 23.112 10.2093C22.5224 9.86892 22.1735 9.23922 22.1481 8.55895C22.1308 8.0961 22.0865 7.77879 21.9735 7.50593C21.726 6.9082 21.251 6.43329 20.6533 6.18569Z" stroke="white" stroke-width="2"/>
</svg>
