<svg width="36" height="36" viewBox="0 0 36 36" fill="none" xmlns="http://www.w3.org/2000/svg">
<path d="M18.5718 32.5965L19.1332 31.5088C19.6946 30.6667 20.0529 29.3504 19.9486 28.4043C19.8443 27.4582 19.3795 26.5887 18.6506 25.9765C17.4255 24.9526 16.586 23.5417 16.2706 21.9765C13.1506 26.4365 14.2648 29.3288 15.7648 31.5088L16.6069 32.6316C14.5181 32.238 11.2061 31.0666 9.88992 29.3976C8.57379 27.7285 7.90624 25.6395 8.01062 23.5165C8.01062 23.5165 7.59062 19.1965 12.5706 14.9765C12.5706 14.9765 16.3306 11.2982 16.3306 5.96491L16.2506 4C18.417 5.51905 21.4943 8.25322 22.4257 10.7298C23.3571 13.2063 23.5191 15.9063 22.8906 18.4765C23.3649 18.0137 24.5252 15.5836 24.7906 14.9765L25.7506 16.7165C26.4315 18.0351 29.4306 22.5765 27.5306 27.3165C26.8539 28.7301 25.8359 29.9529 24.5684 30.8747C23.301 31.7965 20.1251 32.3882 18.5718 32.5965ZM16.3306 18.6965L18.0104 16.9123C17.9177 17.8247 18.0355 21.3104 18.3545 22.1702C18.6734 23.0301 19.1853 23.8053 19.8506 24.4365C20.7079 25.061 21.3572 25.9293 21.7139 26.9282C22.0707 27.927 22.1183 29.0102 21.8506 30.0365C22.6773 29.7469 23.4366 29.2927 24.0829 28.7015C24.7291 28.1103 25.2488 27.3942 25.6106 26.5965C26.2897 24.1618 25.9956 21.5584 24.7906 19.3365C24.4118 19.9509 23.8616 20.441 23.2078 20.7467C22.5539 21.0523 20.4089 21.2263 19.6946 21.1228L20.4106 19.6965C21.2867 17.802 21.5851 15.6914 21.2685 13.6283C20.9519 11.5652 20.0344 9.64114 18.6306 8.09649C18.3506 12.3365 14.0106 16.2565 13.8706 16.4765C9.73063 19.9965 10.0106 23.2565 10.0106 23.3965C9.93252 24.6317 10.1862 25.8654 10.7453 26.9696C11.3045 28.0738 12.1487 29.0084 13.1906 29.6765C12.0106 26.8765 12.0106 23.5165 16.3306 18.6965Z" fill="white"/>
</svg>
