<svg width="30" height="30" viewBox="0 0 30 30" fill="none" xmlns="http://www.w3.org/2000/svg">
<path d="M8.36765 13.7271V16.3439H21.4438V13.7271C21.4438 12.2837 22.6165 11.1103 24.059 11.1103H25.3666C25.3666 8.94318 23.6095 7.185 21.4438 7.185H8.36765C6.20192 7.185 4.44481 8.94318 4.44481 11.1103H5.75243C7.19489 11.1103 8.36765 12.2837 8.36765 13.7271ZM25.3666 12.4187H24.059C23.3357 12.4187 22.7514 13.0034 22.7514 13.7271V17.6523H7.06004V13.7271C7.06004 13.0034 6.4757 12.4187 5.75243 12.4187H4.44481C3.00235 12.4187 1.82959 13.5922 1.82959 15.0355C1.82959 16.0005 2.36081 16.8346 3.1372 17.2885V22.2318C3.1372 22.5916 3.43141 22.886 3.79101 22.886H6.40623C6.76583 22.886 7.06004 22.5916 7.06004 22.2318V21.5776H22.7514V22.2318C22.7514 22.5916 23.0456 22.886 23.4052 22.886H26.0204C26.38 22.886 26.6742 22.5916 26.6742 22.2318V17.2885C27.4506 16.8346 27.9818 16.0005 27.9818 15.0355C27.9818 13.5922 26.8091 12.4187 25.3666 12.4187Z" fill="#606A92"/>
</svg>
