<svg width="30" height="30" viewBox="0 0 30 30" fill="none" xmlns="http://www.w3.org/2000/svg">
<g clip-path="url(#clip0_451_6713)">
<path d="M9.29606 3.47003C9.29606 3.47003 6.74774 5.36243 6.84428 6.70837C6.92621 7.85039 9.1109 8.00699 9.29606 9.13712C9.39362 9.73277 8.4788 10.7563 8.4788 10.7563C8.4788 10.7563 10.9306 9.47244 10.9306 8.32754C10.9306 7.18263 8.74441 7.01307 8.4788 5.89878C8.28087 5.06825 9.29606 3.47003 9.29606 3.47003ZM13.3824 3.47003C13.3824 3.47003 10.834 5.36243 10.9306 6.70837C11.0125 7.85039 13.1972 8.00699 13.3824 9.13712C13.4799 9.73277 12.5651 10.7563 12.5651 10.7563C12.5651 10.7563 15.0169 9.47244 15.0169 8.32754C15.0169 7.18263 12.8307 7.01307 12.5651 5.89878C12.3672 5.06825 13.3824 3.47003 13.3824 3.47003ZM17.4687 3.47003C17.4687 3.47003 14.9203 5.36243 15.0169 6.70837C15.0988 7.85039 17.2835 8.00699 17.4687 9.13712C17.5662 9.73277 16.6514 10.7563 16.6514 10.7563C16.6514 10.7563 19.1032 9.47244 19.1032 8.32754C19.1032 7.18263 16.917 7.01307 16.6514 5.89878C16.4535 5.06825 17.4687 3.47003 17.4687 3.47003ZM5.68443 12.0213C5.75748 15.257 6.65202 21.1003 9.50037 24.0638H17.2643C20.1127 21.1003 21.0073 15.257 21.0803 12.0213H5.68443ZM22.0091 12.0438C21.9996 12.5069 21.9758 13.0179 21.9339 13.5646C23.3586 13.7498 24.4664 14.9632 24.4664 16.4234C24.4664 18.0109 23.1575 19.3075 21.555 19.3075C21.3309 19.3075 21.1128 19.2814 20.903 19.2334C20.7542 19.7202 20.5875 20.2031 20.4004 20.676C20.7684 20.7734 21.1553 20.8255 21.555 20.8255C24.0146 20.8255 25.9988 18.86 25.9988 16.4234C25.9988 14.1387 24.2544 12.2682 22.0091 12.0438ZM4.125 24.9746C4.20198 25.2374 4.32186 25.5413 4.48025 25.8029C4.61495 26.0252 4.77089 26.2182 4.91074 26.3382C5.0505 26.4582 5.15868 26.4926 5.20976 26.4926H21.555C21.606 26.4926 21.7142 26.4583 21.854 26.3382C21.9939 26.2182 22.1498 26.0252 22.2845 25.8029C22.4429 25.5413 22.5628 25.2374 22.6398 24.9746H4.125Z" fill="#606A92"/>
</g>
<defs>
<clipPath id="clip0_451_6713">
<rect width="29.07" height="29.07" fill="white" transform="translate(0.299805 0.410034)"/>
</clipPath>
</defs>
</svg>
