<svg width="14" height="21" viewBox="0 0 14 21" fill="none" xmlns="http://www.w3.org/2000/svg">
<mask id="path-1-inside-1_928_22086" fill="white">
<path fill-rule="evenodd" clip-rule="evenodd" d="M5.23945 0.318939C3.29478 0.318939 1.71832 1.8954 1.71832 3.84006V11.9394C0.847067 12.8285 0.309875 14.0462 0.309875 15.3894C0.309875 18.1119 2.51692 20.3189 5.23945 20.3189C7.96198 20.3189 10.169 18.1119 10.169 15.3894C10.169 14.0462 9.63183 12.8285 8.76057 11.9394V3.84006C8.76057 1.8954 7.18411 0.318939 5.23945 0.318939Z"/>
</mask>
<path d="M1.71832 11.9394L2.28972 12.4993L2.51832 12.266V11.9394H1.71832ZM8.76057 11.9394H7.96057V12.266L8.18918 12.4993L8.76057 11.9394ZM2.51832 3.84006C2.51832 2.33723 3.73661 1.11894 5.23945 1.11894V-0.481061C2.85296 -0.481061 0.918324 1.45357 0.918324 3.84006H2.51832ZM2.51832 11.9394V3.84006H0.918324V11.9394H2.51832ZM1.10988 15.3894C1.10988 14.2639 1.55905 13.2449 2.28972 12.4993L1.14693 11.3795C0.135082 12.412 -0.490125 13.8285 -0.490125 15.3894H1.10988ZM5.23945 19.5189C2.95875 19.5189 1.10988 17.6701 1.10988 15.3894H-0.490125C-0.490125 18.5537 2.07509 21.1189 5.23945 21.1189V19.5189ZM9.36902 15.3894C9.36902 17.6701 7.52015 19.5189 5.23945 19.5189V21.1189C8.4038 21.1189 10.969 18.5537 10.969 15.3894H9.36902ZM8.18918 12.4993C8.91984 13.2449 9.36902 14.2639 9.36902 15.3894H10.969C10.969 13.8285 10.3438 12.412 9.33196 11.3795L8.18918 12.4993ZM7.96057 3.84006V11.9394H9.56057V3.84006H7.96057ZM5.23945 1.11894C6.74228 1.11894 7.96057 2.33723 7.96057 3.84006H9.56057C9.56057 1.45357 7.62594 -0.481061 5.23945 -0.481061V1.11894Z" fill="black" mask="url(#path-1-inside-1_928_22086)"/>
<mask id="path-3-inside-2_928_22086" fill="white">
<path fill-rule="evenodd" clip-rule="evenodd" d="M5.94367 5.95275H4.53522V12.6612C3.32027 12.9739 2.42255 14.0768 2.42255 15.3894C2.42255 16.9451 3.68371 18.2063 5.23945 18.2063C6.79518 18.2063 8.05634 16.9451 8.05634 15.3894C8.05634 14.0768 7.15862 12.9739 5.94367 12.6612V5.95275Z"/>
</mask>
<path fill-rule="evenodd" clip-rule="evenodd" d="M5.94367 5.95275H4.53522V12.6612C3.32027 12.9739 2.42255 14.0768 2.42255 15.3894C2.42255 16.9451 3.68371 18.2063 5.23945 18.2063C6.79518 18.2063 8.05634 16.9451 8.05634 15.3894C8.05634 14.0768 7.15862 12.9739 5.94367 12.6612V5.95275Z" fill="black"/>
<path d="M4.53522 5.95275V4.95275H3.53522V5.95275H4.53522ZM5.94367 5.95275H6.94367V4.95275H5.94367V5.95275ZM4.53522 12.6612L4.78448 13.6297L5.53522 13.4364V12.6612H4.53522ZM5.94367 12.6612H4.94367V13.4364L5.69441 13.6297L5.94367 12.6612ZM4.53522 6.95275H5.94367V4.95275H4.53522V6.95275ZM5.53522 12.6612V5.95275H3.53522V12.6612H5.53522ZM3.42255 15.3894C3.42255 14.5442 4.00062 13.8314 4.78448 13.6297L4.28596 11.6928C2.63992 12.1165 1.42255 13.6095 1.42255 15.3894H3.42255ZM5.23945 17.2063C4.236 17.2063 3.42255 16.3928 3.42255 15.3894H1.42255C1.42255 17.4974 3.13143 19.2063 5.23945 19.2063V17.2063ZM7.05634 15.3894C7.05634 16.3928 6.24289 17.2063 5.23945 17.2063V19.2063C7.34746 19.2063 9.05634 17.4974 9.05634 15.3894H7.05634ZM5.69441 13.6297C6.47827 13.8314 7.05634 14.5442 7.05634 15.3894H9.05634C9.05634 13.6095 7.83897 12.1165 6.19293 11.6928L5.69441 13.6297ZM4.94367 5.95275V12.6612H6.94367V5.95275H4.94367Z" fill="black" mask="url(#path-3-inside-2_928_22086)"/>
<rect x="10.5211" y="2.0795" width="2.8169" height="0.704225" rx="0.352112" fill="black" stroke="black" stroke-width="0.704225"/>
<rect x="10.5211" y="4.47389" width="2.8169" height="0.704225" rx="0.352112" fill="black" stroke="black" stroke-width="0.704225"/>
<rect x="10.5211" y="6.86826" width="2.8169" height="0.704225" rx="0.352112" fill="black" stroke="black" stroke-width="0.704225"/>
<rect x="10.5211" y="9.26266" width="2.8169" height="0.704225" rx="0.352112" fill="black" stroke="black" stroke-width="0.704225"/>
</svg>
