<svg width="36" height="36" viewBox="0 0 36 36" fill="none" xmlns="http://www.w3.org/2000/svg">
<path d="M2.44846 17.4485C2.14385 17.7531 2.14385 18.2469 2.44846 18.5515L7.41235 23.5154C7.71696 23.82 8.21082 23.82 8.51543 23.5154C8.82004 23.2108 8.82004 22.717 8.51543 22.4123L4.10309 18L8.51543 13.5877C8.82004 13.283 8.82004 12.7892 8.51543 12.4846C8.21082 12.18 7.71696 12.18 7.41235 12.4846L2.44846 17.4485ZM12 17.22L3 17.22L3 18.78L12 18.78L12 17.22Z" fill="white"/>
<g clip-path="url(#clip0_23_2445)">
<path d="M16.5407 5V6.93522H10.5074V29.5863L16.5407 29.5913V31.5499L27.5566 29.5325L27.568 7.03143L16.5407 5ZM18.3679 17.3862C18.7378 17.3862 19.0378 17.7841 19.0378 18.2749C19.0378 18.7659 18.7379 19.1637 18.3679 19.1637C17.9978 19.1637 17.6979 18.7659 17.6979 18.2749C17.6979 17.7841 17.9979 17.3862 18.3679 17.3862ZM12.2988 27.7613V8.76166H16.5407V27.7648L12.2988 27.7613Z" fill="white"/>
</g>
<defs>
<clipPath id="clip0_23_2445">
<rect width="26.0395" height="26.5499" fill="white" transform="translate(6.01788 5)"/>
</clipPath>
</defs>
</svg>
