<svg width="30" height="30" viewBox="0 0 30 30" fill="none" xmlns="http://www.w3.org/2000/svg">
<g clip-path="url(#clip0_451_6699)">
<path d="M5.65811 6.02502C4.89861 6.02502 4.27917 6.63865 4.27917 7.39101V13.6803C4.87527 13.168 5.62938 12.7536 6.5774 12.4281V10.5783C6.5774 9.36707 8.66555 9.21233 10.4844 9.21233C12.3032 9.21233 14.3914 9.36707 14.3914 10.5783V11.489C14.5458 11.4872 14.693 11.489 14.851 11.489C15.009 11.489 15.1562 11.4872 15.3107 11.489V10.5783C15.3107 9.36707 17.3988 9.21233 19.2177 9.21233C21.0365 9.21233 23.1246 9.36707 23.1246 10.5783V12.4139C24.0709 12.7376 24.8214 13.1609 25.4229 13.6803V7.39101C25.4229 6.63865 24.8034 6.02502 24.0439 6.02502H5.65811ZM14.851 12.3996C6.07466 12.3996 3.3527 14.0075 3.35988 18.3189H26.3422C26.3493 13.9791 23.6274 12.3996 14.851 12.3996ZM3.35988 19.2296V24.2382H6.5774V22.4169C6.5774 21.7624 6.83595 21.5062 7.49669 21.5062H22.2053C22.8661 21.5062 23.1246 21.7624 23.1246 22.4169V24.2382H26.3422V19.2296H3.35988Z" fill="#606A92"/>
</g>
<defs>
<clipPath id="clip0_451_6699">
<rect width="29.07" height="29.07" fill="white" transform="translate(0.299805 0.670044)"/>
</clipPath>
</defs>
</svg>
