<svg width="30" height="30" viewBox="0 0 30 30" fill="none" xmlns="http://www.w3.org/2000/svg">
<g clip-path="url(#clip0_451_6706)">
<g clip-path="url(#clip1_451_6706)">
<path d="M24.3883 13.2823V6.29747C24.3883 4.11219 22.6111 2.33502 20.4258 2.33502C18.5456 2.33502 16.9745 3.65452 16.5703 5.41386C14.811 5.81803 13.4915 7.38916 13.4915 9.26932C13.4915 9.81614 13.9343 10.2599 14.4821 10.2599H20.4258C20.9736 10.2599 21.4164 9.81614 21.4164 9.26932C21.4164 7.49118 20.2316 6.00028 18.6149 5.50004C18.923 4.80463 19.6174 4.31627 20.4258 4.31627C21.5184 4.31627 22.407 5.20485 22.407 6.29752V13.2318H14.3276C13.9065 11.7578 12.59 10.6582 10.9981 10.5928C10.3156 9.76464 9.29429 9.26936 8.20854 9.26936C6.41257 9.26936 4.87116 10.6146 4.6225 12.3997C4.61656 12.4374 4.61359 12.476 4.61261 12.5146L4.59575 13.2804C3.45754 13.5022 2.59473 14.5057 2.59473 15.7083C2.59473 16.9545 3.52194 17.9778 4.72159 18.1492L5.30408 21.6451C5.48931 22.7595 6.27387 23.6312 7.29619 23.97L6.84744 24.4188C6.46012 24.8061 6.46012 25.4322 6.84744 25.8195C7.04061 26.0127 7.29419 26.1097 7.54782 26.1097C7.8014 26.1097 8.05503 26.0127 8.2482 25.8195L9.93918 24.1285H19.0251L20.7161 25.8195C20.9092 26.0127 21.1628 26.1097 21.4165 26.1097C21.67 26.1097 21.9237 26.0127 22.1168 25.8195C22.5041 25.4322 22.5041 24.8061 22.1168 24.4188L21.6681 23.97C22.6904 23.6312 23.475 22.7595 23.6602 21.6451L24.2427 18.1492C25.4423 17.9778 26.3695 16.9545 26.3695 15.7083C26.3695 14.5127 25.5176 13.5121 24.3883 13.2823ZM23.893 16.2037H23.3977H5.56657H5.07125C4.79882 16.2037 4.57593 15.9817 4.57593 15.7083C4.57593 15.4349 4.79882 15.213 5.07125 15.213H5.56657H13.4915H23.893C24.1654 15.213 24.3883 15.4349 24.3883 15.7083C24.3883 15.9817 24.1654 16.2037 23.893 16.2037Z" fill="#606A92"/>
</g>
</g>
<defs>
<clipPath id="clip0_451_6706">
<rect width="29.07" height="29.07" fill="white" transform="translate(0.299805 0.0400391)"/>
</clipPath>
<clipPath id="clip1_451_6706">
<rect width="29.07" height="25.245" fill="white" transform="translate(0.299805 1.57001)"/>
</clipPath>
</defs>
</svg>
