<svg width="363" height="360" viewBox="0 0 363 360" fill="none" xmlns="http://www.w3.org/2000/svg">
<path d="M99.7551 265.657C82.4545 249.463 70.4398 228.427 65.2802 205.298C60.1206 182.17 62.0559 158.022 70.8334 136.01C79.6109 113.999 94.8226 95.1455 114.482 81.9133C134.141 68.6812 157.333 61.6853 181.03 61.8393C204.727 61.9933 227.827 69.29 247.312 82.7764C266.798 96.2629 281.763 115.312 290.254 137.436C298.744 159.56 300.366 183.731 294.906 206.791C289.446 229.85 277.159 250.728 259.65 266.696L237.868 242.812C250.573 231.225 259.489 216.076 263.451 199.343C267.412 182.61 266.236 165.072 260.075 149.018C253.914 132.965 243.055 119.142 228.916 109.356C214.777 99.5699 198.015 94.2753 180.82 94.1635C163.625 94.0518 146.796 99.1282 132.531 108.73C118.266 118.331 107.228 132.011 100.859 147.984C94.49 163.956 93.0857 181.478 96.8296 198.26C100.574 215.043 109.292 230.307 121.845 242.058L99.7551 265.657Z" fill="#F2F2F2"/>
<g filter="url(#filter0_d_1047_23344)">
<path d="M179.743 68.9664L190.275 85.7964H169.211L179.743 68.9664Z" fill="white"/>
</g>
<g filter="url(#filter1_d_1047_23344)">
<circle cx="179.803" cy="179.186" r="94.38" fill="url(#paint0_linear_1047_23344)"/>
</g>
<g clip-path="url(#clip0_1047_23344)">
<path d="M202.976 175.844C202.976 178.609 202.758 181.086 202.32 183.273C201.898 185.445 201.226 187.289 200.304 188.805C199.383 190.32 198.179 191.477 196.695 192.273C195.211 193.07 193.414 193.469 191.304 193.469C188.664 193.469 186.484 192.773 184.765 191.383C183.047 189.977 181.773 187.961 180.945 185.336C180.117 182.695 179.703 179.531 179.703 175.844C179.703 172.156 180.078 169 180.828 166.375C181.594 163.734 182.828 161.711 184.531 160.305C186.234 158.898 188.492 158.195 191.304 158.195C193.961 158.195 196.148 158.898 197.867 160.305C199.601 161.695 200.883 163.711 201.711 166.352C202.554 168.977 202.976 172.141 202.976 175.844ZM185.258 175.844C185.258 178.734 185.445 181.148 185.82 183.086C186.211 185.023 186.851 186.477 187.742 187.445C188.633 188.398 189.82 188.875 191.304 188.875C192.789 188.875 193.976 188.398 194.867 187.445C195.758 186.492 196.398 185.047 196.789 183.109C197.195 181.172 197.398 178.75 197.398 175.844C197.398 172.969 197.203 170.562 196.812 168.625C196.422 166.688 195.781 165.234 194.89 164.266C194 163.281 192.804 162.789 191.304 162.789C189.804 162.789 188.609 163.281 187.719 164.266C186.844 165.234 186.211 166.688 185.82 168.625C185.445 170.562 185.258 172.969 185.258 175.844Z" fill="#9A9A9A"/>
</g>
<g clip-path="url(#clip1_1047_23344)">
<path d="M175.976 193H152.773V188.852L161.656 179.852C163.375 178.102 164.789 176.594 165.898 175.328C167.008 174.047 167.828 172.836 168.359 171.695C168.906 170.555 169.179 169.312 169.179 167.969C169.179 166.312 168.703 165.062 167.75 164.219C166.797 163.359 165.539 162.93 163.976 162.93C162.492 162.93 161.117 163.227 159.851 163.82C158.601 164.398 157.304 165.227 155.961 166.305L152.937 162.672C153.89 161.859 154.906 161.117 155.984 160.445C157.078 159.773 158.297 159.242 159.64 158.852C160.984 158.445 162.515 158.242 164.234 158.242C166.406 158.242 168.281 158.633 169.859 159.414C171.437 160.18 172.648 161.25 173.492 162.625C174.351 164 174.781 165.602 174.781 167.43C174.781 169.273 174.414 170.977 173.679 172.539C172.945 174.102 171.898 175.648 170.539 177.18C169.179 178.695 167.562 180.344 165.687 182.125L159.758 187.914V188.172H175.976V193Z" fill="#9A9A9A"/>
</g>
<path d="M215.827 166.423C214.874 166.423 214.03 166.228 213.295 165.837C212.571 165.436 212.003 164.883 211.593 164.177C211.183 163.471 210.978 162.656 210.978 161.731C210.978 160.815 211.178 160.005 211.579 159.299C211.989 158.584 212.556 158.026 213.281 157.625C214.015 157.225 214.864 157.025 215.827 157.025C216.791 157.025 217.635 157.225 218.359 157.625C219.084 158.026 219.652 158.579 220.062 159.285C220.481 159.991 220.691 160.806 220.691 161.731C220.691 162.656 220.481 163.471 220.062 164.177C219.652 164.883 219.084 165.436 218.359 165.837C217.635 166.228 216.791 166.423 215.827 166.423ZM215.842 164.249C216.624 164.249 217.239 164.02 217.687 163.562C218.135 163.104 218.359 162.494 218.359 161.731C218.359 160.939 218.131 160.315 217.673 159.857C217.215 159.399 216.605 159.17 215.842 159.17C215.06 159.17 214.44 159.399 213.982 159.857C213.534 160.315 213.31 160.939 213.31 161.731C213.31 162.494 213.534 163.104 213.982 163.562C214.43 164.02 215.05 164.249 215.842 164.249Z" fill="#9A9A9A"/>
<path d="M99.8486 93.2312C121.853 72.7547 150.84 61.4436 180.898 61.6049C210.956 61.7663 239.82 73.3878 261.603 94.0994" stroke="#FFB051" stroke-width="3.96"/>
<circle cx="262.303" cy="95.3664" r="3.96" fill="#FCFCFC" stroke="#FFB051" stroke-width="2.64"/>
<circle cx="98.6227" cy="94.0464" r="3.96" fill="#FCFCFC" stroke="#FFB051" stroke-width="2.64"/>
<line x1="43.1829" y1="179.186" x2="53.7429" y2="179.186" stroke="#9A9A9A" stroke-width="1.32"/>
<line x1="307.183" y1="179.186" x2="317.743" y2="179.186" stroke="#9A9A9A" stroke-width="1.32"/>
<line x1="84.57" y1="80.3797" x2="92.037" y2="87.8467" stroke="#9A9A9A" stroke-width="1.32"/>
<path d="M62.0842 82.3264H60.5022V72.2092C60.5022 71.8251 60.5022 71.4963 60.5022 71.2229C60.5087 70.943 60.5152 70.689 60.5217 70.4612C60.5347 70.2268 60.551 69.9892 60.5706 69.7483C60.3687 69.9566 60.1799 70.1357 60.0042 70.2854C59.8284 70.4286 59.6103 70.6077 59.3499 70.8225L57.719 72.1311L56.8694 71.0276L60.7366 68.0491H62.0842V82.3264ZM72.0061 73.5959C72.9762 73.5959 73.8193 73.762 74.5354 74.094C75.2515 74.4195 75.8049 74.8948 76.1956 75.5198C76.5927 76.1448 76.7913 76.9032 76.7913 77.7952C76.7913 78.7717 76.5797 79.6148 76.1565 80.3245C75.7333 81.0276 75.1246 81.5712 74.3303 81.9553C73.5361 82.3329 72.5855 82.5217 71.4788 82.5217C70.7366 82.5217 70.0465 82.4566 69.4084 82.3264C68.7704 82.1962 68.2333 82.0009 67.7971 81.7405V80.1975C68.2724 80.484 68.8486 80.7118 69.5256 80.8811C70.2027 81.0504 70.8603 81.135 71.4983 81.135C72.2209 81.135 72.8525 81.0211 73.3928 80.7932C73.9397 80.5588 74.3629 80.2073 74.6624 79.7385C74.9683 79.2633 75.1213 78.6676 75.1213 77.9514C75.1213 77.0009 74.8284 76.2685 74.2424 75.7542C73.663 75.2333 72.745 74.9729 71.4885 74.9729C71.0849 74.9729 70.6422 75.0055 70.1604 75.0706C69.6786 75.1357 69.2815 75.2073 68.969 75.2854L68.1487 74.7483L68.6956 68.0491H75.7952V69.5334H70.0823L69.7209 73.8401C69.9683 73.788 70.2874 73.7359 70.678 73.6838C71.0686 73.6252 71.5113 73.5959 72.0061 73.5959ZM82.2307 73.9377C81.6057 73.9377 81.0588 73.8108 80.5901 73.5569C80.1213 73.303 79.7535 72.9482 79.4866 72.4924C79.2262 72.0302 79.0959 71.4996 79.0959 70.9006C79.0959 70.2952 79.2229 69.7646 79.4768 69.3088C79.7372 68.8466 80.1018 68.4885 80.5706 68.2346C81.0393 67.9742 81.5927 67.844 82.2307 67.844C82.8492 67.844 83.3928 67.9742 83.8616 68.2346C84.3368 68.4885 84.7079 68.8466 84.9749 69.3088C85.2418 69.7646 85.3752 70.2952 85.3752 70.9006C85.3752 71.4996 85.2418 72.0302 84.9749 72.4924C84.7079 72.9482 84.3368 73.303 83.8616 73.5569C83.3928 73.8108 82.8492 73.9377 82.2307 73.9377ZM82.2502 72.8245C82.8883 72.8245 83.3668 72.6487 83.6858 72.2971C84.0048 71.939 84.1643 71.4736 84.1643 70.9006C84.1643 70.3017 83.9983 69.8264 83.6663 69.4749C83.3407 69.1168 82.8687 68.9377 82.2502 68.9377C81.5927 68.9377 81.1044 69.1168 80.7854 69.4749C80.4664 69.8264 80.3069 70.3017 80.3069 70.9006C80.3069 71.4736 80.4631 71.939 80.7756 72.2971C81.0946 72.6487 81.5862 72.8245 82.2502 72.8245Z" fill="#9A9A9A"/>
<path d="M289.805 78.3663H280.449V77.0089L284.268 73.132C284.977 72.4158 285.573 71.7778 286.055 71.2179C286.543 70.658 286.914 70.1079 287.168 69.5675C287.422 69.0206 287.549 68.4217 287.549 67.7706C287.549 66.9633 287.308 66.3481 286.826 65.9249C286.351 65.4952 285.723 65.2804 284.942 65.2804C284.258 65.2804 283.653 65.3976 283.125 65.632C282.598 65.8663 282.058 66.1984 281.504 66.6281L280.635 65.5343C281.013 65.2153 281.423 64.9321 281.865 64.6847C282.315 64.4373 282.793 64.242 283.301 64.0988C283.815 63.9555 284.362 63.8839 284.942 63.8839C285.821 63.8839 286.579 64.0369 287.217 64.3429C287.855 64.6489 288.347 65.0851 288.692 65.6515C289.043 66.2179 289.219 66.8917 289.219 67.673C289.219 68.4282 289.069 69.1313 288.77 69.7823C288.47 70.4269 288.05 71.0682 287.51 71.7062C286.97 72.3377 286.338 73.0083 285.615 73.7179L282.51 76.8136V76.882H289.805V78.3663ZM296.406 69.6359C297.377 69.6359 298.22 69.8019 298.936 70.1339C299.652 70.4594 300.205 70.9347 300.596 71.5597C300.993 72.1847 301.192 72.9432 301.192 73.8351C301.192 74.8116 300.98 75.6547 300.557 76.3644C300.134 77.0675 299.525 77.6111 298.731 77.9952C297.936 78.3728 296.986 78.5616 295.879 78.5616C295.137 78.5616 294.447 78.4965 293.809 78.3663C293.171 78.2361 292.634 78.0408 292.198 77.7804V76.2374C292.673 76.5239 293.249 76.7517 293.926 76.921C294.603 77.0903 295.261 77.1749 295.899 77.1749C296.621 77.1749 297.253 77.061 297.793 76.8331C298.34 76.5988 298.763 76.2472 299.063 75.7784C299.369 75.3032 299.522 74.7075 299.522 73.9913C299.522 73.0408 299.229 72.3084 298.643 71.7941C298.063 71.2732 297.145 71.0128 295.889 71.0128C295.485 71.0128 295.043 71.0454 294.561 71.1105C294.079 71.1756 293.682 71.2472 293.369 71.3253L292.549 70.7882L293.096 64.089H300.196V65.5734H294.483L294.121 69.88C294.369 69.8279 294.688 69.7758 295.078 69.7238C295.469 69.6652 295.912 69.6359 296.406 69.6359ZM306.631 69.9777C306.006 69.9777 305.459 69.8507 304.99 69.5968C304.522 69.3429 304.154 68.9881 303.887 68.5323C303.627 68.0701 303.496 67.5395 303.496 66.9406C303.496 66.3351 303.623 65.8045 303.877 65.3488C304.138 64.8865 304.502 64.5284 304.971 64.2745C305.44 64.0141 305.993 63.8839 306.631 63.8839C307.25 63.8839 307.793 64.0141 308.262 64.2745C308.737 64.5284 309.108 64.8865 309.375 65.3488C309.642 65.8045 309.776 66.3351 309.776 66.9406C309.776 67.5395 309.642 68.0701 309.375 68.5323C309.108 68.9881 308.737 69.3429 308.262 69.5968C307.793 69.8507 307.25 69.9777 306.631 69.9777ZM306.651 68.8644C307.289 68.8644 307.767 68.6886 308.086 68.337C308.405 67.979 308.565 67.5135 308.565 66.9406C308.565 66.3416 308.399 65.8663 308.067 65.5148C307.741 65.1567 307.269 64.9777 306.651 64.9777C305.993 64.9777 305.505 65.1567 305.186 65.5148C304.867 65.8663 304.707 66.3416 304.707 66.9406C304.707 67.5135 304.864 67.979 305.176 68.337C305.495 68.6886 305.987 68.8644 306.651 68.8644Z" fill="#9A9A9A"/>
<line x1="269.756" y1="89.1667" x2="277.223" y2="81.6997" stroke="#9A9A9A" stroke-width="1.32"/>
<line x1="179.803" y1="53.4152" x2="179.803" y2="42.8552" stroke="#9A9A9A" stroke-width="1.32"/>
<path d="M330.198 176.979C330.198 177.617 330.074 178.171 329.826 178.639C329.579 179.108 329.234 179.492 328.791 179.792C328.349 180.085 327.828 180.29 327.229 180.407V180.485C328.362 180.628 329.211 180.993 329.778 181.579C330.351 182.165 330.637 182.933 330.637 183.883C330.637 184.71 330.442 185.443 330.051 186.081C329.667 186.719 329.074 187.22 328.274 187.585C327.479 187.943 326.461 188.122 325.217 188.122C324.462 188.122 323.762 188.06 323.117 187.936C322.479 187.819 321.867 187.62 321.281 187.34V185.817C321.874 186.11 322.518 186.341 323.215 186.51C323.912 186.673 324.586 186.755 325.237 186.755C326.539 186.755 327.479 186.497 328.059 185.983C328.638 185.462 328.928 184.753 328.928 183.854C328.928 183.236 328.765 182.738 328.44 182.36C328.121 181.976 327.658 181.696 327.053 181.52C326.454 181.338 325.731 181.247 324.885 181.247H323.459V179.86H324.895C325.67 179.86 326.327 179.746 326.867 179.518C327.408 179.29 327.818 178.971 328.098 178.561C328.384 178.144 328.528 177.653 328.528 177.087C328.528 176.364 328.287 175.807 327.805 175.417C327.323 175.019 326.669 174.821 325.842 174.821C325.334 174.821 324.872 174.873 324.455 174.977C324.039 175.081 323.648 175.225 323.283 175.407C322.919 175.589 322.554 175.801 322.19 176.042L321.369 174.928C321.89 174.525 322.525 174.176 323.274 173.883C324.022 173.59 324.872 173.444 325.823 173.444C327.281 173.444 328.375 173.776 329.104 174.44C329.833 175.104 330.198 175.95 330.198 176.979ZM342.248 180.768C342.248 181.927 342.16 182.962 341.985 183.874C341.809 184.785 341.532 185.557 341.155 186.188C340.777 186.82 340.289 187.301 339.69 187.633C339.091 187.959 338.371 188.122 337.531 188.122C336.47 188.122 335.591 187.832 334.895 187.253C334.205 186.673 333.687 185.837 333.342 184.743C333.003 183.643 332.834 182.318 332.834 180.768C332.834 179.245 332.987 177.936 333.293 176.842C333.606 175.742 334.107 174.899 334.797 174.313C335.487 173.721 336.399 173.424 337.531 173.424C338.606 173.424 339.491 173.717 340.188 174.303C340.884 174.883 341.402 175.723 341.74 176.823C342.079 177.917 342.248 179.232 342.248 180.768ZM334.465 180.768C334.465 182.096 334.566 183.203 334.768 184.089C334.97 184.974 335.295 185.638 335.744 186.081C336.2 186.517 336.796 186.735 337.531 186.735C338.267 186.735 338.86 186.517 339.309 186.081C339.765 185.644 340.093 184.984 340.295 184.098C340.503 183.213 340.608 182.103 340.608 180.768C340.608 179.46 340.507 178.366 340.305 177.487C340.103 176.602 339.778 175.937 339.328 175.495C338.879 175.046 338.28 174.821 337.531 174.821C336.783 174.821 336.184 175.046 335.735 175.495C335.285 175.937 334.96 176.602 334.758 177.487C334.563 178.366 334.465 179.46 334.465 180.768ZM347.551 179.538C346.926 179.538 346.379 179.411 345.91 179.157C345.442 178.903 345.074 178.548 344.807 178.092C344.546 177.63 344.416 177.1 344.416 176.501C344.416 175.895 344.543 175.365 344.797 174.909C345.058 174.447 345.422 174.089 345.891 173.835C346.36 173.574 346.913 173.444 347.551 173.444C348.17 173.444 348.713 173.574 349.182 173.835C349.657 174.089 350.028 174.447 350.295 174.909C350.562 175.365 350.696 175.895 350.696 176.501C350.696 177.1 350.562 177.63 350.295 178.092C350.028 178.548 349.657 178.903 349.182 179.157C348.713 179.411 348.17 179.538 347.551 179.538ZM347.571 178.424C348.209 178.424 348.687 178.249 349.006 177.897C349.325 177.539 349.485 177.074 349.485 176.501C349.485 175.902 349.319 175.426 348.987 175.075C348.661 174.717 348.189 174.538 347.571 174.538C346.913 174.538 346.425 174.717 346.106 175.075C345.787 175.426 345.627 175.902 345.627 176.501C345.627 177.074 345.783 177.539 346.096 177.897C346.415 178.249 346.906 178.424 347.571 178.424Z" fill="#9A9A9A"/>
<path d="M14.6384 187.926H13.0564V177.809C13.0564 177.425 13.0564 177.096 13.0564 176.823C13.0629 176.543 13.0694 176.289 13.0759 176.061C13.0889 175.827 13.1052 175.589 13.1248 175.348C12.9229 175.557 12.7341 175.736 12.5583 175.885C12.3826 176.029 12.1645 176.208 11.9041 176.422L10.2732 177.731L9.42358 176.628L13.2908 173.649H14.6384V187.926ZM29.4822 180.768C29.4822 181.927 29.3943 182.962 29.2185 183.874C29.0427 184.785 28.766 185.557 28.3884 186.188C28.0108 186.82 27.5225 187.301 26.9236 187.633C26.3246 187.959 25.6052 188.122 24.7654 188.122C23.7042 188.122 22.8253 187.832 22.1287 187.253C21.4386 186.673 20.921 185.837 20.5759 184.743C20.2374 183.643 20.0681 182.318 20.0681 180.768C20.0681 179.245 20.2211 177.936 20.5271 176.842C20.8396 175.742 21.3409 174.899 22.031 174.313C22.7211 173.721 23.6326 173.424 24.7654 173.424C25.8396 173.424 26.725 173.717 27.4216 174.303C28.1182 174.883 28.6358 175.723 28.9744 176.823C29.3129 177.917 29.4822 179.232 29.4822 180.768ZM21.699 180.768C21.699 182.096 21.7999 183.203 22.0017 184.089C22.2035 184.974 22.5291 185.638 22.9783 186.081C23.434 186.517 24.0297 186.735 24.7654 186.735C25.5011 186.735 26.0935 186.517 26.5427 186.081C26.9985 185.644 27.3272 184.984 27.5291 184.098C27.7374 183.213 27.8416 182.103 27.8416 180.768C27.8416 179.46 27.7406 178.366 27.5388 177.487C27.337 176.602 27.0115 175.937 26.5623 175.495C26.113 175.046 25.5141 174.821 24.7654 174.821C24.0167 174.821 23.4177 175.046 22.9685 175.495C22.5193 175.937 22.1938 176.602 21.9919 177.487C21.7966 178.366 21.699 179.46 21.699 180.768ZM34.7849 179.538C34.1599 179.538 33.613 179.411 33.1443 179.157C32.6755 178.903 32.3077 178.548 32.0408 178.092C31.7804 177.63 31.6501 177.1 31.6501 176.501C31.6501 175.895 31.7771 175.365 32.031 174.909C32.2914 174.447 32.656 174.089 33.1248 173.835C33.5935 173.574 34.1469 173.444 34.7849 173.444C35.4034 173.444 35.947 173.574 36.4158 173.835C36.891 174.089 37.2621 174.447 37.5291 174.909C37.796 175.365 37.9294 175.895 37.9294 176.501C37.9294 177.1 37.796 177.63 37.5291 178.092C37.2621 178.548 36.891 178.903 36.4158 179.157C35.947 179.411 35.4034 179.538 34.7849 179.538ZM34.8044 178.424C35.4425 178.424 35.921 178.249 36.24 177.897C36.559 177.539 36.7185 177.074 36.7185 176.501C36.7185 175.902 36.5525 175.426 36.2205 175.075C35.8949 174.717 35.4229 174.538 34.8044 174.538C34.1469 174.538 33.6586 174.717 33.3396 175.075C33.0206 175.426 32.8611 175.902 32.8611 176.501C32.8611 177.074 33.0173 177.539 33.3298 177.897C33.6488 178.249 34.1404 178.424 34.8044 178.424Z" fill="#9A9A9A"/>
<path d="M178.925 38.7664H169.57V37.4089L173.388 33.532C174.098 32.8158 174.693 32.1778 175.175 31.6179C175.663 31.058 176.034 30.5079 176.288 29.9675C176.542 29.4207 176.669 28.8217 176.669 28.1707C176.669 27.3634 176.428 26.7481 175.947 26.325C175.471 25.8953 174.843 25.6804 174.062 25.6804C173.378 25.6804 172.773 25.7976 172.245 26.032C171.718 26.2664 171.178 26.5984 170.624 27.0281L169.755 25.9343C170.133 25.6153 170.543 25.3321 170.986 25.0847C171.435 24.8373 171.913 24.642 172.421 24.4988C172.935 24.3556 173.482 24.2839 174.062 24.2839C174.941 24.2839 175.699 24.4369 176.337 24.7429C176.975 25.0489 177.467 25.4851 177.812 26.0515C178.163 26.6179 178.339 27.2917 178.339 28.073C178.339 28.8282 178.189 29.5313 177.89 30.1824C177.59 30.8269 177.17 31.4682 176.63 32.1062C176.09 32.7377 175.458 33.4083 174.736 34.1179L171.63 37.2136V37.282H178.925V38.7664ZM190.448 31.6082C190.448 32.767 190.361 33.8022 190.185 34.7136C190.009 35.6251 189.732 36.3966 189.355 37.0281C188.977 37.6596 188.489 38.1414 187.89 38.4734C187.291 38.7989 186.572 38.9617 185.732 38.9617C184.67 38.9617 183.792 38.672 183.095 38.0925C182.405 37.5131 181.887 36.6765 181.542 35.5828C181.204 34.4825 181.034 33.1576 181.034 31.6082C181.034 30.0847 181.187 28.7761 181.493 27.6824C181.806 26.5821 182.307 25.739 182.997 25.1531C183.687 24.5606 184.599 24.2644 185.732 24.2644C186.806 24.2644 187.691 24.5574 188.388 25.1433C189.085 25.7227 189.602 26.5626 189.941 27.6628C190.279 28.7566 190.448 30.0717 190.448 31.6082ZM182.665 31.6082C182.665 32.9363 182.766 34.0431 182.968 34.9285C183.17 35.8139 183.495 36.4779 183.945 36.9207C184.4 37.3569 184.996 37.575 185.732 37.575C186.467 37.575 187.06 37.3569 187.509 36.9207C187.965 36.4845 188.294 35.8236 188.495 34.9382C188.704 34.0528 188.808 32.9428 188.808 31.6082C188.808 30.2996 188.707 29.2058 188.505 28.3269C188.303 27.4415 187.978 26.7774 187.529 26.3347C187.079 25.8855 186.48 25.6609 185.732 25.6609C184.983 25.6609 184.384 25.8855 183.935 26.3347C183.486 26.7774 183.16 27.4415 182.958 28.3269C182.763 29.2058 182.665 30.2996 182.665 31.6082ZM195.751 30.3777C195.126 30.3777 194.579 30.2507 194.111 29.9968C193.642 29.7429 193.274 29.3881 193.007 28.9324C192.747 28.4701 192.616 27.9395 192.616 27.3406C192.616 26.7351 192.743 26.2045 192.997 25.7488C193.258 25.2865 193.622 24.9285 194.091 24.6746C194.56 24.4141 195.113 24.2839 195.751 24.2839C196.37 24.2839 196.913 24.4141 197.382 24.6746C197.857 24.9285 198.228 25.2865 198.495 25.7488C198.762 26.2045 198.896 26.7351 198.896 27.3406C198.896 27.9395 198.762 28.4701 198.495 28.9324C198.228 29.3881 197.857 29.7429 197.382 29.9968C196.913 30.2507 196.37 30.3777 195.751 30.3777ZM195.771 29.2644C196.409 29.2644 196.887 29.0886 197.206 28.7371C197.525 28.379 197.685 27.9135 197.685 27.3406C197.685 26.7416 197.519 26.2664 197.187 25.9148C196.861 25.5567 196.389 25.3777 195.771 25.3777C195.113 25.3777 194.625 25.5567 194.306 25.9148C193.987 26.2664 193.827 26.7416 193.827 27.3406C193.827 27.9135 193.984 28.379 194.296 28.7371C194.615 29.0886 195.107 29.2644 195.771 29.2644Z" fill="#9A9A9A"/>
<circle cx="52.1317" cy="316.634" r="25.74" stroke="#9A9A9A" stroke-width="1.32"/>
<circle cx="307.932" cy="316.634" r="25.74" stroke="#9A9A9A" stroke-width="1.32"/>
<line x1="296.957" y1="316.961" x2="318.93" y2="316.961" stroke="#FFB051" stroke-width="2.44142" stroke-linecap="round"/>
<line x1="307.943" y1="327.947" x2="307.943" y2="305.974" stroke="#FFB051" stroke-width="2.44142" stroke-linecap="round"/>
<line x1="40.877" y1="316.961" x2="62.8497" y2="316.961" stroke="#FFB051" stroke-width="2.44142" stroke-linecap="round"/>
<defs>
<filter id="filter0_d_1047_23344" x="163.931" y="68.9664" width="31.6243" height="27.39" filterUnits="userSpaceOnUse" color-interpolation-filters="sRGB">
<feFlood flood-opacity="0" result="BackgroundImageFix"/>
<feColorMatrix in="SourceAlpha" type="matrix" values="0 0 0 0 0 0 0 0 0 0 0 0 0 0 0 0 0 0 127 0" result="hardAlpha"/>
<feOffset dy="5.28"/>
<feGaussianBlur stdDeviation="2.64"/>
<feComposite in2="hardAlpha" operator="out"/>
<feColorMatrix type="matrix" values="0 0 0 0 0 0 0 0 0 0 0 0 0 0 0 0 0 0 0.25 0"/>
<feBlend mode="normal" in2="BackgroundImageFix" result="effect1_dropShadow_1047_23344"/>
<feBlend mode="normal" in="SourceGraphic" in2="effect1_dropShadow_1047_23344" result="shape"/>
</filter>
<filter id="filter1_d_1047_23344" x="58.2306" y="70.8144" width="229.944" height="229.944" filterUnits="userSpaceOnUse" color-interpolation-filters="sRGB">
<feFlood flood-opacity="0" result="BackgroundImageFix"/>
<feColorMatrix in="SourceAlpha" type="matrix" values="0 0 0 0 0 0 0 0 0 0 0 0 0 0 0 0 0 0 127 0" result="hardAlpha"/>
<feOffset dx="-6.6" dy="6.6"/>
<feGaussianBlur stdDeviation="10.296"/>
<feComposite in2="hardAlpha" operator="out"/>
<feColorMatrix type="matrix" values="0 0 0 0 0 0 0 0 0 0 0 0 0 0 0 0 0 0 0.16 0"/>
<feBlend mode="normal" in2="BackgroundImageFix" result="effect1_dropShadow_1047_23344"/>
<feBlend mode="normal" in="SourceGraphic" in2="effect1_dropShadow_1047_23344" result="shape"/>
</filter>
<linearGradient id="paint0_linear_1047_23344" x1="237.245" y1="107.081" x2="111.053" y2="241.547" gradientUnits="userSpaceOnUse">
<stop stop-color="white"/>
<stop offset="1" stop-color="#E7E7E7"/>
</linearGradient>
<clipPath id="clip0_1047_23344">
<rect width="30" height="36" fill="white" transform="translate(176.617 158)"/>
</clipPath>
<clipPath id="clip1_1047_23344">
<rect width="30" height="36" fill="white" transform="translate(149.617 158)"/>
</clipPath>
</defs>
</svg>
